<?xml version="1.0" standalone="no"?>
<!DOCTYPE svg PUBLIC "-//W3C//DTD SVG 20010904//EN"
 "http://www.w3.org/TR/2001/REC-SVG-20010904/DTD/svg10.dtd">
<svg version="1.0" xmlns="http://www.w3.org/2000/svg"
 width="225.000000pt" height="225.000000pt" viewBox="0 0 225.000000 225.000000"
 preserveAspectRatio="xMidYMid meet">
<metadata>
Created by potrace 1.14, written by Peter Selinger 2001-2017
</metadata>
<g transform="translate(0.000000,225.000000) scale(0.100000,-0.100000)"
fill="#000000" stroke="none">
<path d="M965 1976 c-168 -33 -319 -110 -419 -215 -25 -26 -27 -31 -12 -37 11
-4 15 -13 11 -25 -9 -27 32 -61 65 -53 24 5 24 5 6 -15 -42 -46 -6 -27 62 33
124 109 256 162 417 168 41 2 75 6 75 10 0 5 -12 9 -27 9 -17 1 -21 3 -10 6 9
2 17 13 17 24 0 11 4 18 9 14 5 -3 12 -1 16 5 3 5 -1 10 -9 10 -9 0 -16 7 -16
15 0 8 -7 15 -15 15 -8 0 -15 5 -15 10 0 6 17 10 37 10 39 0 40 7 2 16 -53 13
-128 12 -194 0z"/>
<path d="M1267 1880 c39 -10 85 -26 102 -34 38 -20 55 -20 21 -1 -34 20 -147
55 -174 54 -11 0 11 -9 51 -19z"/>
<path d="M1425 1824 c6 -6 36 -27 68 -49 64 -42 159 -142 179 -187 7 -15 16
-28 20 -28 14 0 9 10 -30 63 -50 67 -146 155 -203 186 -24 13 -39 20 -34 15z"/>
<path d="M981 1785 c-189 -43 -343 -178 -410 -358 -24 -67 -48 -246 -34 -256
5 -3 15 -28 23 -56 54 -208 204 -359 410 -411 49 -12 89 -15 160 -11 151 10
250 54 355 161 179 180 214 444 88 659 -15 27 -33 58 -39 69 -37 65 -161 154
-263 188 -83 27 -207 34 -290 15z m243 -35 c94 -24 173 -67 239 -131 27 -26
52 -47 55 -46 14 1 74 -111 94 -178 27 -87 29 -224 5 -304 -68 -221 -261 -375
-487 -388 -102 -6 -174 7 -260 48 -95 45 -95 44 -55 97 20 25 33 47 30 50 -2
3 -13 -6 -24 -19 -59 -75 -59 -75 -66 -56 -5 12 4 29 29 57 51 56 45 63 -9 10
-36 -35 -47 -42 -57 -31 -11 10 -5 20 28 51 23 21 39 41 36 45 -3 3 -24 -13
-47 -35 -34 -34 -44 -38 -53 -27 -9 11 -2 20 33 47 25 19 45 38 45 42 0 11
-14 3 -63 -35 -21 -16 -41 -27 -44 -24 -12 12 7 37 47 62 23 15 39 29 36 32
-3 3 -27 -8 -55 -25 -27 -17 -52 -28 -55 -25 -15 16 -2 31 44 53 28 13 50 27
50 32 0 5 -22 -3 -50 -17 -57 -29 -70 -31 -70 -9 0 13 21 26 84 48 10 3 17 9
14 12 -3 2 -25 -2 -49 -10 -54 -19 -69 -20 -69 -3 0 7 25 21 56 31 68 22 66
31 -4 14 -29 -6 -54 -10 -56 -7 -2 2 -7 16 -11 32 -6 21 -4 27 9 27 9 0 13 6
10 14 -4 11 11 16 73 21 109 9 116 16 11 11 l-87 -5 -7 36 c-22 116 72 312
193 405 141 107 294 140 457 98z"/>
<path d="M1430 1615 c13 -14 26 -25 28 -25 3 0 -5 11 -18 25 -13 14 -26 25
-28 25 -3 0 5 -11 18 -25z"/>
<path d="M1090 1556 c0 -18 6 -26 22 -28 29 -4 48 -42 48 -95 0 -42 0 -43 -35
-43 -34 0 -35 -1 -35 -36 0 -26 7 -43 25 -60 20 -19 23 -27 16 -47 -5 -13 -7
-43 -4 -65 5 -38 4 -40 -16 -35 -19 5 -21 1 -21 -36 l0 -41 58 -2 c133 -3 132
-4 132 163 0 121 -1 129 -22 143 -12 9 -30 16 -40 16 -15 0 -18 9 -18 66 0 59
-3 68 -29 95 -38 37 -81 40 -81 5z"/>
<path d="M1453 1473 c3 -16 17 -59 31 -98 17 -47 26 -91 26 -134 0 -55 2 -62
15 -51 29 24 12 148 -35 247 -31 67 -46 81 -37 36z"/>
<path d="M1500 1496 c0 -2 8 -10 18 -17 15 -13 16 -12 3 4 -13 16 -21 21 -21
13z"/>
<path d="M1350 1452 c0 -6 5 -14 11 -18 6 -3 23 -32 36 -63 27 -59 35 -142 20
-216 -6 -35 -6 -37 5 -20 8 12 13 53 13 105 0 67 -5 96 -24 137 -22 50 -61 98
-61 75z"/>
<path d="M1592 1320 c0 -14 2 -19 5 -12 2 6 2 18 0 25 -3 6 -5 1 -5 -13z"/>
<path d="M1592 1160 c0 -14 2 -19 5 -12 2 6 2 18 0 25 -3 6 -5 1 -5 -13z"/>
<path d="M1451 1144 c0 -11 3 -14 6 -6 3 7 2 16 -1 19 -3 4 -6 -2 -5 -13z"/>
<path d="M1344 1048 l-19 -23 23 19 c21 18 27 26 19 26 -2 0 -12 -10 -23 -22z"/>
<path d="M1469 1028 c-26 -50 -86 -113 -142 -149 -67 -44 -69 -53 -2 -14 49
29 125 107 149 153 9 18 14 32 12 32 -3 0 -11 -10 -17 -22z"/>
<path d="M1395 1031 c-3 -5 -2 -12 3 -15 5 -3 9 1 9 9 0 17 -3 19 -12 6z"/>
<path d="M1091 891 c-7 -5 -12 -13 -10 -18 2 -5 12 -1 22 9 18 19 12 24 -12 9z"/>
<path d="M875 860 c36 -24 94 -44 102 -36 4 3 1 6 -6 6 -7 0 -35 11 -63 25
-60 30 -74 32 -33 5z"/>
<path d="M1405 840 c-3 -6 1 -7 9 -4 18 7 21 14 7 14 -6 0 -13 -4 -16 -10z"/>
<path d="M1195 823 c-33 -9 -77 -13 -130 -10 -65 4 -74 3 -45 -5 45 -13 165
-4 210 15 43 19 30 19 -35 0z"/>
<path d="M830 796 c0 -2 7 -7 16 -10 8 -3 12 -2 9 4 -6 10 -25 14 -25 6z"/>
<path d="M1178 783 c7 -3 16 -2 19 1 4 3 -2 6 -13 5 -11 0 -14 -3 -6 -6z"/>
<path d="M1417 1779 c3 -10 8 -19 12 -19 3 0 29 -17 56 -38 40 -30 53 -36 62
-26 13 13 -3 31 -64 73 -45 31 -72 35 -66 10z"/>
<path d="M500 1695 c-13 -14 -19 -25 -13 -25 12 0 48 38 41 45 -2 3 -15 -6
-28 -20z"/>
<path d="M540 1641 c-6 -12 -17 -21 -25 -21 -17 0 -89 -136 -80 -150 4 -6 0
-10 -7 -11 -7 0 -4 -4 7 -9 18 -8 18 -9 2 -9 -10 -1 -15 -5 -12 -11 3 -5 1
-10 -5 -10 -6 0 -8 -4 -5 -10 3 -5 0 -10 -7 -10 -9 0 -9 -3 2 -10 8 -5 10 -10
4 -10 -7 0 -15 -16 -19 -36 -7 -39 6 -57 32 -47 12 5 12 7 1 14 -10 7 -10 9 2
9 13 0 13 1 0 10 -13 9 -13 10 0 10 13 0 13 1 0 10 -12 8 -12 10 -1 10 8 0 12
3 8 6 -3 4 1 13 9 21 12 12 12 18 2 31 -8 9 -8 13 -2 9 16 -10 25 18 11 33 -8
9 -8 11 -1 7 11 -6 42 49 36 66 -1 4 3 7 9 7 5 0 7 5 4 10 -3 6 -1 10 5 10 6
0 9 4 6 9 -3 5 1 12 10 15 9 3 14 12 11 19 -2 6 2 20 11 30 8 9 13 20 9 23 -3
3 -10 -4 -17 -15z"/>
<path d="M1737 1613 c-4 -6 0 -19 8 -29 8 -10 15 -25 15 -31 0 -18 -18 -16
-22 2 -5 24 -74 -17 -70 -41 2 -14 -3 -11 -22 11 -28 33 -36 23 -10 -13 8 -12
13 -22 10 -22 -3 0 3 -21 13 -48 10 -26 24 -82 31 -125 14 -87 2 -195 -31
-279 -10 -27 -16 -48 -13 -48 4 0 -1 -11 -10 -25 -10 -15 -12 -25 -5 -25 6 0
13 9 16 20 3 11 10 20 15 20 5 0 8 -6 5 -12 -2 -7 2 -17 9 -23 23 -17 -13 -73
-106 -165 -47 -47 -71 -75 -54 -63 38 27 130 126 164 176 15 23 30 35 39 32 8
-3 18 0 22 7 4 7 11 9 16 5 4 -4 2 -17 -5 -27 -7 -11 -12 -25 -12 -32 1 -7 8
1 17 17 9 17 22 35 28 40 47 38 86 276 67 401 -13 79 -54 213 -70 223 -5 3
-16 19 -24 35 -8 16 -18 24 -21 19z"/>
<path d="M412 1215 c0 -16 2 -22 5 -12 2 9 2 23 0 30 -3 6 -5 -1 -5 -18z"/>
<path d="M400 1156 c0 -14 5 -28 10 -31 6 -4 8 -11 5 -16 -4 -5 0 -9 7 -9 9 0
9 -3 -2 -10 -11 -7 -11 -10 -2 -10 7 0 10 -4 7 -10 -3 -5 0 -10 7 -10 9 0 9
-3 -2 -10 -8 -5 -10 -10 -4 -10 6 0 11 -7 11 -15 0 -26 36 -95 46 -88 6 3 7 1
3 -5 -9 -16 21 -72 39 -72 22 0 39 -38 25 -55 -8 -9 -8 -15 0 -20 6 -3 7 -11
4 -17 -5 -7 -16 -1 -30 17 -13 16 -26 27 -28 24 -3 -3 3 -15 14 -27 11 -12 20
-25 20 -30 0 -14 81 -86 143 -127 121 -80 313 -133 436 -121 36 4 72 11 80 17
12 8 6 9 -21 5 -21 -2 -40 0 -43 5 -4 5 1 9 9 9 9 0 16 8 16 19 0 14 8 21 28
24 l27 4 -27 2 c-21 1 -28 6 -28 21 0 13 -5 18 -15 14 -8 -4 -15 -1 -15 4 0 6
15 12 33 14 21 3 9 6 -38 11 -202 21 -320 65 -414 152 -47 44 -71 56 -71 34 0
-8 -4 -8 -13 -1 -8 7 -18 7 -27 2 -16 -10 -53 16 -44 31 7 11 -24 69 -37 69
-6 0 -7 5 -4 10 3 6 1 10 -6 10 -7 0 -10 3 -6 6 3 4 0 19 -9 35 -8 16 -14 31
-13 34 2 14 -13 65 -20 65 -4 0 -6 14 -3 30 3 19 0 30 -7 30 -7 0 -9 5 -6 10
3 6 -3 10 -14 10 -16 0 -21 -6 -21 -24z"/>
<path d="M600 882 c0 -5 7 -15 15 -22 8 -7 15 -8 15 -2 0 5 -7 15 -15 22 -8 7
-15 8 -15 2z"/>
<path d="M1363 689 c-30 -14 -41 -24 -36 -35 3 -8 12 -13 20 -10 8 3 17 6 19
6 3 0 2 4 -1 10 -4 6 1 7 11 3 11 -4 15 -3 10 5 -3 6 -1 14 5 18 8 4 9 3 5 -4
-9 -15 -1 -15 25 -1 20 10 17 30 -4 28 -7 0 -31 -9 -54 -20z"/>
<path d="M1425 670 c-27 -17 -46 -30 -41 -30 11 0 96 49 96 55 0 7 0 7 -55
-25z"/>
<path d="M1315 620 c-13 -6 -15 -9 -5 -9 8 0 22 4 30 9 18 12 2 12 -25 0z"/>
<path d="M1235 600 c-27 -7 -28 -8 -5 -8 14 0 34 3 45 8 25 11 2 11 -40 0z"/>
</g>
</svg>
